<?xml version="1.0" encoding="UTF-8"?>
<!DOCTYPE svg PUBLIC "-//W3C//DTD SVG 1.1//EN" "http://www.w3.org/Graphics/SVG/1.1/DTD/svg11.dtd">
<!-- Creator: CorelDRAW -->
<svg xmlns="http://www.w3.org/2000/svg" xml:space="preserve" width="55.955mm" height="11.9943mm" version="1.1" style="shape-rendering:geometricPrecision; text-rendering:geometricPrecision; image-rendering:optimizeQuality; fill-rule:evenodd; clip-rule:evenodd"
viewBox="0 0 2020.15 433.03"
 xmlns:xlink="http://www.w3.org/1999/xlink"
 xmlns:xodm="http://www.corel.com/coreldraw/odm/2003">
 <defs>
  <style type="text/css">
   <![CDATA[
    .str1 {stroke:#1688FB;stroke-width:12.74;stroke-miterlimit:22.9256}
    .str0 {stroke:#1688FB;stroke-width:2.75;stroke-linecap:round;stroke-linejoin:round;stroke-miterlimit:2.61313}
    .fil8 {fill:none}
    .fil0 {fill:#1688FB}
    .fil4 {fill:#CA8714}
    .fil7 {fill:#CE8A14}
    .fil5 {fill:#E49A0D}
    .fil1 {fill:#F3A60C}
    .fil6 {fill:#FBB62A}
    .fil2 {fill:#FCBD2F}
    .fil3 {fill:#FDC33B}
    .fnt0 {font-weight:300;font-size:137.23px;font-family:'Calibri Light'}
    .fnt1 {font-weight:bold;font-size:214.04px;font-family:'Calibri'}
   ]]>
  </style>
 </defs>
 <g id="Layer_x0020_1">
  <metadata id="CorelCorpID_0Corel-Layer"/>
  <text x="599.15" y="94.83"  class="fil0 str0 fnt0">the</text>
  <text x="585.73" y="267.81"  class="fil0 fnt1">CREATIVE</text>
  <text x="585.73" y="430.68"  class="fil0 fnt1">EDGE ACADEMY</text>
  <path class="fil1" d="M183.06 293.16c0.68,-26.63 -0.18,-121.9 0.47,-136.57 -17.14,-10.93 -31.03,-20.33 -37.79,-24.53l-0.65 137.33 37.97 23.77z"/>
  <path class="fil1" d="M239.31 336.57c2.79,0.32 29.15,17.73 35.13,21.67l3.95 -148.77c-19.1,-12.33 -17.94,-14.83 -36.94,-25.41 -1.04,54.4 -2.13,98.1 -2.15,152.5z"/>
  <polygon class="fil2" points="242.04,184.66 297.93,146.06 281.64,137.07 371.93,122.7 353.55,179.67 332.97,169.37 278.39,209.47 "/>
  <polygon class="fil2" points="145.06,132.06 204.88,89.53 185.47,77.9 280.77,70.1 267.63,127.12 245.86,113.14 183.53,156.59 "/>
  <polygon class="fil2" points="55.31,75.19 112.26,35.54 96.45,26.07 191.03,13.24 173.9,72.46 153.25,60.09 95.47,100.79 "/>
  <polygon class="fil3" points="2.3,299.01 95.14,237.39 57.04,213.72 -0,245.14 "/>
  <polygon class="fil3" points="274.48,356.07 178.39,407.5 178.94,363.18 238.74,333.51 "/>
  <polygon class="fil3" points="84.61,352.22 182.55,292.65 145.09,269.39 83.07,301.87 "/>
  <polygon class="fil4" points="0.1,250.34 77.33,297.53 180.13,363.94 179.49,406.44 1.01,299.01 "/>
  <polygon class="fil5" points="-0,245.14 38.8,273.97 1.01,299.01 "/>
  <polygon class="fil6" points="84,301.98 123.96,328.27 86.08,352.77 "/>
  <path class="fil1" d="M95.14 237.39c-0.46,-35.59 1.89,-118.59 2.14,-138.5 -9.85,-6.28 -23.66,-12.68 -41.29,-23.27 -0.7,33.2 1.29,125.77 1.05,138.1 16.39,10.35 14.82,8.59 38.1,23.67z"/>
  <polygon class="fil7" points="87.45,351.88 123.96,328.27 180.13,363.94 179.47,408.17 "/>
  <line class="fil8 str1" x1="475.12" y1="417.98" x2="475.12" y2= "3.91" />
 </g>
</svg>
