<?xml version="1.0" encoding="UTF-8"?>
<!DOCTYPE svg PUBLIC "-//W3C//DTD SVG 1.1//EN" "http://www.w3.org/Graphics/SVG/1.1/DTD/svg11.dtd">
<!-- Creator: CorelDRAW -->
<svg xmlns="http://www.w3.org/2000/svg" xml:space="preserve" width="44.0539mm" height="46.7773mm" version="1.1" style="shape-rendering:geometricPrecision; text-rendering:geometricPrecision; image-rendering:optimizeQuality; fill-rule:evenodd; clip-rule:evenodd"
viewBox="0 0 2034.01 2159.76"
 xmlns:xlink="http://www.w3.org/1999/xlink"
 xmlns:xodm="http://www.corel.com/coreldraw/odm/2003">
 <defs>
  <style type="text/css">
   <![CDATA[
    .fil3 {fill:#CA8714}
    .fil6 {fill:#CE8A14}
    .fil4 {fill:#E49A0D}
    .fil0 {fill:#F3A60C}
    .fil5 {fill:#FBB62A}
    .fil1 {fill:#FCBD2F}
    .fil2 {fill:#FDC33B}
   ]]>
  </style>
 </defs>
 <g id="Layer_x0020_1">
  <metadata id="CorelCorpID_0Corel-Layer"/>
  <g id="_2459267833344">
   <path class="fil0" d="M1001.1 1530.8c3.68,-145.64 -1.02,-666.66 2.58,-746.87 -93.75,-59.76 -169.67,-111.17 -206.66,-134.14l-3.56 751.02 207.64 129.99z"/>
   <path class="fil0" d="M1308.7 1768.2c15.23,1.75 159.39,96.98 192.14,118.52l21.61 -813.57c-104.47,-67.42 -98.09,-81.13 -201.99,-138.96 -5.69,297.52 -11.67,536.5 -11.76,834.01z"/>
   <polygon class="fil1" points="1323.64,937.44 1629.31,726.35 1540.23,677.18 2034.01,598.63 1933.48,910.19 1820.91,853.81 1522.44,1073.15 "/>
   <polygon class="fil1" points="793.26,649.78 1120.42,417.21 1014.26,353.61 1535.44,310.97 1463.63,622.75 1344.56,546.32 1003.68,783.92 "/>
   <polygon class="fil1" points="302.51,338.81 613.93,121.97 527.46,70.19 1044.68,0 951,323.85 838.06,256.22 522.1,478.8 "/>
   <polygon class="fil2" points="12.6,1562.77 520.31,1225.82 311.95,1096.39 -0,1268.21 "/>
   <polygon class="fil2" points="1501.06,1874.84 975.54,2156.12 978.58,1913.74 1305.62,1751.45 "/>
   <polygon class="fil2" points="462.72,1853.78 998.31,1528.02 793.46,1400.8 454.31,1578.41 "/>
   <polygon class="fil3" points="0.54,1296.62 422.87,1554.69 985.1,1917.89 981.61,2150.29 5.55,1562.77 "/>
   <polygon class="fil4" points="0,1268.21 212.22,1425.86 5.55,1562.77 "/>
   <polygon class="fil5" points="459.36,1579.02 677.94,1722.8 470.78,1856.79 "/>
   <path class="fil0" d="M520.31 1225.82c-2.51,-194.64 10.32,-648.54 11.74,-757.4 -53.86,-34.33 -129.39,-69.35 -225.83,-127.24 -3.8,181.54 7.04,687.81 5.73,755.21 89.62,56.62 81.04,46.99 208.36,129.43z"/>
   <polygon class="fil6" points="478.26,1851.94 677.93,1722.8 985.1,1917.89 981.47,2159.76 "/>
  </g>
 </g>
</svg>
